<?xml version="1.0" encoding="UTF-8"?>
<!DOCTYPE svg PUBLIC "-//W3C//DTD SVG 1.1//EN" "http://www.w3.org/Graphics/SVG/1.1/DTD/svg11.dtd">
<svg xmlns="http://www.w3.org/2000/svg" version="1.1" width="1025px" height="1025px" style="shape-rendering:geometricPrecision; text-rendering:geometricPrecision; image-rendering:optimizeQuality; fill-rule:evenodd; clip-rule:evenodd" xmlns:xlink="http://www.w3.org/1999/xlink">
<g><path style="opacity:1" fill="#fefffe" d="M 749.5,208.5 C 768.978,265.768 787.978,323.268 806.5,381C 867.169,381.167 927.836,381.667 988.5,382.5C 939.469,418.343 890.469,454.176 841.5,490C 860.368,546.938 879.035,603.938 897.5,661C 897.167,661.5 896.833,662 896.5,662.5C 847.401,627.2 798.567,591.533 750,555.5C 710.333,584.5 670.667,613.5 631,642.5C 630.672,645.207 631.005,647.874 632,650.5C 641.577,679.309 651.077,708.143 660.5,737C 660.167,737.5 659.833,738 659.5,738.5C 610.755,702.711 561.922,667.044 513,631.5C 471.901,660.967 431.067,690.8 390.5,721C 401.394,752.471 411.394,783.971 420.5,815.5C 371.78,779.447 322.78,743.78 273.5,708.5C 224.755,744.289 175.922,779.956 127,815.5C 144.765,757.7 163.265,700.033 182.5,642.5C 133.538,606.679 84.538,570.845 35.5,535C 95.8342,534.838 156.168,534.838 216.5,535C 235.848,477.29 255.014,419.456 274,361.5C 284.678,393.365 294.844,425.365 304.5,457.5C 355.171,457.833 405.838,457.5 456.5,456.5C 475.242,399.108 494.075,341.775 513,284.5C 523.804,316.412 534.304,348.412 544.5,380.5C 594.167,381.833 643.833,381.833 693.5,380.5C 711.967,323.098 730.634,265.765 749.5,208.5 Z M 555.5,416.5 C 555.897,415.475 556.563,415.308 557.5,416C 575.886,430.053 594.553,443.72 613.5,457C 598.504,457.5 583.504,457.667 568.5,457.5C 564.739,443.554 560.406,429.888 555.5,416.5 Z M 315.5,489.5 C 336.408,503.728 357.075,518.395 377.5,533.5C 378.521,534.002 378.688,534.668 378,535.5C 362.349,535.791 346.516,535.458 330.5,534.5C 325.038,519.653 320.038,504.653 315.5,489.5 Z M 641.5,538.5 C 634.308,562.245 626.808,585.912 619,609.5C 613.935,595.072 609.102,580.572 604.5,566C 616.37,556.308 628.704,547.142 641.5,538.5 Z M 403.5,613.5 C 404.376,613.369 405.043,613.702 405.5,614.5C 397.551,639.348 389.218,664.015 380.5,688.5C 374.571,673.105 369.738,657.438 366,641.5C 378.683,632.303 391.183,622.97 403.5,613.5 Z"/></g>
</svg>
